<svg width="34" height="34" viewBox="0 0 34 34" fill="none" xmlns="http://www.w3.org/2000/svg">
<g clip-path="url(#clip0_158_3)">
<path d="M17.1718 33.6368C16.9099 33.7194 16.5851 33.6062 16.4115 33.3717C16.3418 33.2772 16.3359 33.2347 16.3278 32.7763C16.3217 32.4257 16.2812 24.3302 16.2842 24.0463C16.2844 24.031 14.7867 24.015 12.9561 24.0106C11.1254 24.0064 9.55803 23.9957 9.47343 23.9868C9.22072 23.96 8.98047 23.7552 8.9007 23.499C8.83168 23.2763 8.91976 22.6057 9.08038 22.1309C9.27843 21.5462 9.58312 21.0711 10.0854 20.5639C10.7624 19.8807 11.4857 19.421 12.6353 18.943L12.8168 18.8676L12.8477 18.6109C12.8646 18.4697 12.8876 18.2553 12.8989 18.1345C12.9101 18.0135 12.9217 17.8925 12.9248 17.865C12.9281 17.8377 12.983 17.2889 13.0475 16.6456C13.112 16.0022 13.179 15.3364 13.1966 15.1664C13.2145 14.9963 13.278 14.3513 13.3382 13.7333C13.3985 13.1153 13.4952 12.1254 13.5534 11.5338C13.8926 8.08996 13.8911 8.10658 13.8167 8.02065C13.7717 7.96871 13.5369 7.82468 13.1234 7.59502C12.3874 7.18619 12.3124 7.12519 12.244 6.87781C12.1865 6.6696 12.1816 4.98811 12.238 4.81636C12.2936 4.64775 12.4575 4.48529 12.6243 4.43385C12.7908 4.38223 14.7873 4.35568 17.7693 4.36516C21.0906 4.37559 21.3667 4.39108 21.5486 4.57812C21.6586 4.69105 21.695 4.79691 21.7259 5.09285C21.7585 5.40947 21.7407 6.54732 21.6989 6.79833C21.6428 7.1354 21.6125 7.16125 20.6562 7.68917C20.1292 7.98035 20.0647 8.02372 20.057 8.09317C20.0524 8.13657 20.2007 9.73077 20.2782 10.468C20.2903 10.5816 20.3442 11.1258 20.3986 11.6776C20.53 13.0138 20.5381 13.0961 20.5954 13.6522C20.6225 13.916 20.6888 14.5782 20.7429 15.1241C20.8863 16.5731 21.0686 18.3522 21.102 18.6297L21.1307 18.8708L21.5505 19.0546C22.6272 19.5257 23.2937 19.9718 23.9273 20.6446C24.4986 21.251 24.7883 21.7475 24.9487 22.3952C25.0392 22.7611 25.0949 23.2802 25.0635 23.4625C25.0423 23.5831 25.0227 23.6171 24.8913 23.76C24.7645 23.8979 24.724 23.928 24.6121 23.9667C24.5115 24.002 23.6926 24.0131 21.0678 24.016L17.6546 24.0196L17.6563 27.8697C17.658 31.7958 17.6454 32.9636 17.5978 33.2048C17.5748 33.3217 17.5538 33.3579 17.4467 33.465C17.3467 33.5651 17.2931 33.5986 17.1718 33.6368Z" fill="#003366"/>
</g>
<defs>
<clipPath id="clip0_158_3">
<rect width="24" height="24" fill="white" transform="translate(0 16.9706) rotate(-45)"/>
</clipPath>
</defs>
</svg>
