<svg width="24" height="24" viewBox="0 0 24 24" fill="none" xmlns="http://www.w3.org/2000/svg">
<path d="M2 6H22" stroke="#003366" stroke-width="2" stroke-linecap="round" stroke-linejoin="round"/>
<path d="M4.5 6H19.5V21C19.5 21.442 19.3243 21.866 19.0118 22.1785C18.6993 22.491 18.2753 22.6667 17.8333 22.6667H6.16667C5.72463 22.6667 5.30072 22.491 4.98815 22.1785C4.6756 21.866 4.5 21.442 4.5 21V6Z" stroke="#003366" stroke-width="2" stroke-linecap="round" stroke-linejoin="round"/>
<path d="M7.8335 6V5.16667C7.8335 4.0616 8.27248 3.00178 9.05388 2.22038C9.83528 1.43899 10.8951 1 12.0002 1C13.1052 1 14.165 1.43899 14.9464 2.22038C15.7278 3.00178 16.1668 4.0616 16.1668 5.16667V6" stroke="#003366" stroke-width="2" stroke-linecap="round" stroke-linejoin="round"/>
<path d="M9.5 11.002V17.6712" stroke="#003366" stroke-width="2" stroke-linecap="round" stroke-linejoin="round"/>
<path d="M14.5 11.002V17.6712" stroke="#003366" stroke-width="2" stroke-linecap="round" stroke-linejoin="round"/>
</svg>
