<svg width="24" height="24" viewBox="0 0 24 24" fill="none" xmlns="http://www.w3.org/2000/svg">
<g clip-path="url(#clip0_234_1047)">
<path d="M12 23C9.5212 20.2708 6.15952 18.5032 2.50619 18.0077C2.09035 17.9616 1.7063 17.7631 1.42816 17.4507C1.15002 17.1381 0.997494 16.7337 1.00003 16.3153V2.69212C1.00002 2.44768 1.05295 2.20613 1.1552 1.9841C1.25745 1.76208 1.40658 1.56484 1.59234 1.40595C1.77482 1.24996 1.98841 1.13457 2.21892 1.06746C2.44941 1.00035 2.69156 0.983057 2.92926 1.01672C6.42267 1.59652 9.61847 3.33753 12 5.9583V23Z" stroke="#003366" stroke-width="2" stroke-linecap="round" stroke-linejoin="round"/>
<path d="M12 23C14.4788 20.2708 17.8405 18.5032 21.4938 18.0077C21.9096 17.9616 22.2938 17.7631 22.5718 17.4507C22.85 17.1381 23.0025 16.7337 23 16.3153V2.69212C23 2.44768 22.947 2.20613 22.8448 1.9841C22.7426 1.76208 22.5935 1.56484 22.4077 1.40595C22.2252 1.24996 22.0117 1.13457 21.7812 1.06746C21.5505 1.00035 21.3085 0.983057 21.0708 1.01672C17.5773 1.59652 14.3815 3.33753 12 5.9583V23Z" stroke="#003366" stroke-width="2" stroke-linecap="round" stroke-linejoin="round"/>
</g>
<defs>
<clipPath id="clip0_234_1047">
<rect width="24" height="24" fill="white"/>
</clipPath>
</defs>
</svg>
