<svg width="19" height="19" viewBox="0 0 19 19" fill="none" xmlns="http://www.w3.org/2000/svg">
<path d="M18 9.5C18 10.6162 17.7801 11.7215 17.353 12.7528C16.9258 13.7841 16.2997 14.7211 15.5104 15.5104C14.7211 16.2997 13.7841 16.9258 12.7528 17.353C11.7215 17.7801 10.6162 18 9.5 18C8.38376 18 7.27846 17.7801 6.24719 17.353C5.21592 16.9258 4.27889 16.2997 3.48959 15.5104C2.70029 14.7211 2.07419 13.7841 1.64702 12.7528C1.21986 11.7215 1 10.6162 1 9.5C1 8.38376 1.21986 7.27846 1.64703 6.24719C2.07419 5.21592 2.7003 4.27889 3.48959 3.48959C4.27889 2.70029 5.21593 2.07419 6.24719 1.64702C7.27846 1.21986 8.38377 0.999999 9.5 1C10.6162 1 11.7215 1.21986 12.7528 1.64703C13.7841 2.07419 14.7211 2.7003 15.5104 3.4896C16.2997 4.27889 16.9258 5.21593 17.353 6.2472C17.7801 7.27846 18 8.38377 18 9.50001L18 9.5Z" stroke="#19B80B" stroke-width="2"/>
<g clip-path="url(#clip0_1570_55285)">
<path d="M5 10.6283L6.89 13.0582C6.95378 13.1411 7.0355 13.2085 7.12902 13.2553C7.22254 13.302 7.32545 13.327 7.43 13.3282C7.53287 13.3295 7.63472 13.3077 7.72813 13.2646C7.82153 13.2215 7.90416 13.1581 7.97 13.079L14 5.7821" stroke="#19B80B" stroke-width="2" stroke-linecap="round" stroke-linejoin="round"/>
</g>
<defs>
<clipPath id="clip0_1570_55285">
<rect width="11" height="11" fill="white" transform="translate(4 4)"/>
</clipPath>
</defs>
</svg>
