<svg width="24" height="24" viewBox="0 0 24 24" fill="none" xmlns="http://www.w3.org/2000/svg">
<path d="M19.2 11.9996C19.2 12.4967 19.603 12.8996 20.1 12.8996C20.5971 12.8996 21 12.4967 21 11.9996C21 11.5026 20.5971 11.0996 20.1 11.0996C19.603 11.0996 19.2 11.5026 19.2 11.9996Z" fill="#003366" stroke="#003366" stroke-width="2" stroke-linecap="round" stroke-linejoin="round"/>
<path d="M11.0999 11.9996C11.0999 12.4967 11.5029 12.8996 11.9999 12.8996C12.497 12.8996 12.8999 12.4967 12.8999 11.9996C12.8999 11.5026 12.497 11.0996 11.9999 11.0996C11.5029 11.0996 11.0999 11.5026 11.0999 11.9996Z" fill="#003366" stroke="#003366" stroke-width="2" stroke-linecap="round" stroke-linejoin="round"/>
<path d="M2.99981 11.9996C2.99981 12.4967 3.40283 12.8996 3.89981 12.8996C4.39679 12.8996 4.7998 12.4967 4.7998 11.9996C4.7998 11.5026 4.39679 11.0996 3.89981 11.0996C3.40283 11.0996 2.99981 11.5026 2.99981 11.9996Z" fill="#003366" stroke="#003366" stroke-width="2" stroke-linecap="round" stroke-linejoin="round"/>
</svg>
