<svg width="44" height="44" viewBox="0 0 44 44" fill="none" xmlns="http://www.w3.org/2000/svg">
<rect x="0.5" y="0.5" width="43" height="43" rx="9.5" stroke="#003366"/>
<g filter="url(#filter0_d_460_1308)">
<path fill-rule="evenodd" clip-rule="evenodd" d="M23.7617 14.6094C23.6612 14.5115 23.5593 14.4161 23.4545 14.3228C21.4014 12.6436 18.2325 13.3462 16.4828 15.1392C16.4596 15.1637 16.4368 15.1874 16.414 15.211C15.4996 16.3031 14.8011 17.2168 13.9804 19.5293C13.5855 20.6527 13.2974 22.3428 12.5766 26.5715C12.4305 27.4283 12.2667 28.3894 12.0806 29.471C11.8645 30.9075 11.6467 32.3474 11.3313 33.7658C11.3271 33.7844 11.323 33.8029 11.3189 33.8212C11.3127 33.8484 11.3067 33.8754 11.3008 33.9024C11.1138 34.7446 10.9085 35.5898 10.5522 36.3796C10.5394 36.4071 10.5266 36.4342 10.5139 36.461C10.504 36.4819 10.4941 36.5027 10.4844 36.5235C10.0323 37.4903 9.47416 38.3432 8.46483 38.8008C7.97068 38.9968 7.30166 39.1038 6.79205 38.8881C6.76154 38.873 6.73233 38.8584 6.70311 38.8438C6.40404 38.7085 6.17158 38.5611 5.96276 38.305C5.1833 37.2217 5.19533 35.7866 5.35217 34.5173C5.35424 34.5017 5.35627 34.4863 5.35828 34.471C5.36252 34.4386 5.3667 34.4069 5.37108 34.3751C5.33845 34.3751 5.31328 34.3751 5.28838 34.3776C5.20441 34.3863 5.12346 34.4242 4.76951 34.5899C4.11123 34.9444 3.68799 35.4682 3.43748 36.1694C3.1526 37.0924 3.31201 38.094 3.72537 38.953C4.14861 39.7062 4.87436 40.3198 5.69377 40.603C5.72252 40.6117 5.751 40.6204 5.77928 40.6289C5.80086 40.6355 5.82234 40.642 5.84373 40.6485C6.05901 40.716 6.27428 40.771 6.49729 40.8066C7.96467 40.9729 9.48619 40.6287 10.6799 39.7419C10.7379 39.6967 10.7959 39.6521 10.8547 39.6078C14.0044 37.2316 14.9028 32.918 15.4752 29.2373L15.479 29.2132C15.5427 28.807 15.5439 28.799 15.6101 28.3775C15.6247 28.2846 15.6394 28.1917 15.6541 28.0989C15.6834 27.9133 15.7127 27.7277 15.7416 27.5422L15.7418 27.5411C15.758 27.4353 15.7743 27.3295 15.791 27.2242C15.7987 27.1731 15.8065 27.1232 15.8146 27.0738C15.8615 26.7692 15.9139 26.4684 15.9844 26.168C16.2864 26.4817 16.7153 26.7116 17.123 26.853C17.1442 26.8594 17.165 26.8657 17.1858 26.872C17.2151 26.8809 17.2442 26.8897 17.2734 26.8985C17.7564 27.0467 18.2213 27.0931 18.7262 27.0876C20.0582 27.0519 21.3103 26.5187 22.235 25.5544C22.2485 25.5399 22.2618 25.5256 22.275 25.5114C22.2982 25.4866 22.321 25.4622 22.3437 25.4376C22.4439 25.3301 22.5431 25.2223 22.6402 25.1119C22.6858 25.0594 22.6858 25.0594 22.7305 25.0079C23.2641 24.3973 23.7003 23.6879 24.056 22.9613C24.0667 22.9392 24.0771 22.9176 24.0875 22.8963C24.0935 22.884 24.0995 22.8717 24.1055 22.8594C24.8535 21.331 25.2226 19.7528 25.1844 18.0551C25.1431 16.8541 24.7405 15.532 23.8442 14.6855C23.8163 14.6597 23.7888 14.6344 23.7617 14.6094ZM21.5957 15.4991C22.1071 15.9017 22.3189 16.554 22.4104 17.1766C22.5067 18.0944 22.4693 19.0754 22.3008 19.9803C22.2923 20.0279 22.2837 20.0758 22.2746 20.1247C21.9326 22.0003 21.2898 24.1264 19.7227 25.3514C19.2462 25.6625 18.6352 25.7794 18.0787 25.6672C17.5034 25.5095 17.0484 25.192 16.7308 24.6884C16.4962 24.2596 16.3321 23.8514 16.4004 23.3585C16.4021 23.3457 16.4037 23.3327 16.4053 23.3197C16.4078 23.2993 16.4104 23.2785 16.4133 23.2575C16.461 22.8893 16.5241 22.5236 16.5912 22.1584C16.5976 22.1227 16.6041 22.0871 16.6109 22.0505C18.0212 16.4918 18.2052 16.3315 19.2711 15.6031C19.3764 15.5356 19.4812 15.4793 19.5938 15.4256C19.6299 15.408 19.666 15.3904 19.7034 15.3723C20.2843 15.1343 21.0689 15.1523 21.5957 15.4991Z" fill="white"/>
<path d="M19.8921 13.6758C21.0292 13.5056 22.1814 13.7023 23.1128 14.3751L23.2964 14.5167C23.3952 14.6048 23.4918 14.695 23.5874 14.7881L23.5923 14.793L23.6743 14.8692C24.505 15.655 24.8942 16.9026 24.9341 18.0635C24.9709 19.7177 24.6123 21.2555 23.8813 22.7491L23.8804 22.7501C23.8745 22.7622 23.8688 22.7748 23.8628 22.7872C23.8524 22.8086 23.8414 22.8302 23.8306 22.8526C23.4817 23.5648 23.0577 24.2544 22.5425 24.8438H22.5415L22.4526 24.9464C22.3579 25.054 22.2601 25.1599 22.1606 25.2667L22.1597 25.2676C22.1376 25.2915 22.1158 25.3157 22.0923 25.3409C22.08 25.3541 22.0669 25.3671 22.0542 25.3809C21.177 26.2957 19.9888 26.8028 18.7202 26.837C18.2349 26.8421 17.798 26.7976 17.3472 26.6592H17.3452C17.3163 26.6505 17.2876 26.6418 17.2583 26.6329C17.2396 26.6272 17.2208 26.6211 17.2017 26.6153C16.8179 26.4818 16.4297 26.2695 16.1646 25.9942L15.8462 25.6641L15.7407 26.1114C15.7045 26.266 15.6734 26.4203 15.645 26.5743L15.5679 27.0333C15.5595 27.0841 15.5513 27.135 15.5435 27.1866L15.4946 27.503V27.504C15.4658 27.6891 15.436 27.8742 15.4067 28.0596C15.3921 28.1525 15.3774 28.246 15.3628 28.3389C15.2967 28.7602 15.2956 28.7688 15.2319 29.1749L15.228 29.1983V29.1993C14.9422 31.0371 14.5771 33.0136 13.897 34.8233C13.2173 36.6317 12.2289 38.2582 10.7046 39.4083C10.6458 39.4525 10.5879 39.4967 10.5308 39.5411C9.39656 40.3838 7.94451 40.7159 6.53564 40.5587C6.32795 40.5254 6.12495 40.4749 5.91846 40.4102L5.9165 40.4092C5.89506 40.4027 5.87354 40.3962 5.85205 40.3897C5.82643 40.3819 5.80064 40.3741 5.7749 40.3663H5.77588C5.01761 40.1042 4.34109 39.5349 3.94678 38.837C3.55815 38.0255 3.41666 37.0973 3.67334 36.254C3.90387 35.6087 4.28525 35.1362 4.88037 34.8135C4.96042 34.7761 5.0256 34.7472 5.07861 34.7227C4.94826 35.9463 4.97178 37.3555 5.76025 38.4512L5.76416 38.4571L5.76904 38.463C6.00818 38.7562 6.27515 38.9225 6.59131 39.0665V39.0674C6.62035 39.082 6.65001 39.097 6.68115 39.1124L6.69482 39.1182C7.21773 39.3395 7.85303 39.2664 8.35205 39.1065L8.55713 39.0333L8.56787 39.0284C9.65975 38.5333 10.2507 37.6131 10.7104 36.6299C10.7199 36.6098 10.7298 36.5893 10.7397 36.5684C10.7524 36.5418 10.7656 36.5138 10.7788 36.4854L10.7798 36.4825C11.1476 35.667 11.3574 34.7987 11.5444 33.9561H11.5454C11.5511 33.9299 11.5568 33.9034 11.563 33.876C11.5671 33.8579 11.5715 33.8393 11.5757 33.8204C11.8929 32.394 12.111 30.9471 12.3267 29.5137C12.5128 28.4318 12.6767 27.4702 12.8228 26.6133C13.5457 22.372 13.8306 20.711 14.2163 19.6133C15.0215 17.3446 15.6998 16.4537 16.5942 15.3848C16.6169 15.3613 16.6395 15.336 16.6636 15.3106C17.4993 14.4554 18.6784 13.8576 19.8921 13.6758ZM21.7329 15.2901C21.1244 14.8897 20.2506 14.8779 19.6089 15.1407L19.6011 15.1436L19.5942 15.1475C19.557 15.1655 19.5212 15.183 19.4858 15.2003C19.4262 15.2287 19.3679 15.2585 19.3101 15.2901L19.1362 15.3926L19.1304 15.3965C18.8666 15.5768 18.6315 15.7379 18.4204 15.9659C18.2064 16.197 18.0256 16.4866 17.8403 16.9171C17.4753 17.7654 17.0718 19.2177 16.3687 21.9893L16.3667 21.9962L16.3657 22.004C16.3587 22.0413 16.3516 22.078 16.3452 22.1133C16.2781 22.4793 16.214 22.8495 16.1655 23.2237C16.1624 23.2464 16.1592 23.269 16.1567 23.2891C16.1552 23.3014 16.1543 23.313 16.1528 23.3243C16.0732 23.8987 16.2693 24.3665 16.5112 24.8087L16.5151 24.8155L16.519 24.8214C16.8725 25.3819 17.3819 25.7354 18.0122 25.9083L18.0298 25.9122C18.6504 26.0371 19.3285 25.9075 19.8599 25.5606L19.8687 25.5547L19.8765 25.5479C21.5225 24.2611 22.178 22.0506 22.521 20.17L22.52 20.169C22.5291 20.1198 22.5388 20.0718 22.5474 20.0245L22.5464 20.0235C22.7189 19.0953 22.7573 18.0911 22.6587 17.1505H22.6597L22.6577 17.1407L22.6157 16.8965C22.5015 16.3201 22.2652 15.7081 21.7505 15.3028L21.7417 15.296L21.7329 15.2901Z" stroke="#003366" stroke-width="0.5"/>
</g>
<g filter="url(#filter1_d_460_1308)">
<path d="M38.3582 2.87854C38.3909 2.9069 38.4235 2.93569 38.457 2.96491C38.5004 3.00229 38.5004 3.00229 38.5447 3.04053C39.1888 3.63522 39.5716 4.52639 39.7461 5.37116C39.7534 5.40725 39.7611 5.44377 39.7689 5.48116C39.8316 5.81331 39.8466 6.1403 39.8454 6.4776C39.8454 6.56569 39.8462 6.65335 39.8475 6.74143C39.8514 7.55311 39.67 8.42881 39.0943 9.03553C38.9997 9.12276 38.9026 9.20311 38.8008 9.28131C38.7746 9.30151 38.7488 9.3217 38.7221 9.34233C38.4287 9.54815 38.0003 9.711 37.6406 9.711C37.6406 9.67792 37.6411 9.6444 37.6415 9.61045C37.6441 9.29377 37.6458 8.9771 37.6471 8.66085C37.6479 8.49799 37.6488 8.33557 37.6501 8.17272C37.6595 7.13116 37.6595 7.13116 37.5117 6.10163C37.5023 6.05995 37.4932 6.01827 37.4838 5.9753C37.3373 5.36729 36.975 4.78764 36.4775 4.41252C35.802 4.00647 34.9516 3.96565 34.1975 4.1517C34.0983 4.1835 33.9999 4.21745 33.9023 4.25397C33.8289 4.28061 33.8289 4.28061 33.7537 4.30768C33.1577 4.54315 32.6163 4.90065 32.1406 5.32819C32.1058 5.3587 32.0714 5.3892 32.0358 5.42057C31.0063 6.38565 30.4807 7.77698 30.1211 9.10944C30.1121 9.14166 30.103 9.17389 30.0936 9.20698C29.8448 10.102 29.7017 11.028 29.5625 11.9454C29.5964 11.9449 29.6308 11.9445 29.6661 11.9441C29.9896 11.9406 30.3132 11.9381 30.6371 11.9364C30.8034 11.9355 30.9697 11.9342 31.136 11.9325C31.2967 11.9303 31.4574 11.9295 31.6186 11.929C31.6796 11.9286 31.7406 11.9282 31.8016 11.9269C32.1475 11.9222 32.4057 11.9243 32.6992 12.1173C32.8483 12.2651 32.9085 12.418 32.9355 12.6247C32.9196 12.8499 32.8526 13.063 32.7852 13.2774C32.7731 13.3191 32.7611 13.3608 32.7486 13.4037C32.661 13.6822 32.566 13.8566 32.3125 14.0079C31.967 14.1578 31.619 14.1535 31.2486 14.1492C31.1884 14.1492 31.1283 14.1488 31.0681 14.1488C30.9117 14.1484 30.7549 14.1471 30.5985 14.1454C30.4378 14.1441 30.2775 14.1437 30.1168 14.1428C29.8031 14.1415 29.4895 14.1394 29.1758 14.1368C29.1702 14.184 29.1646 14.2317 29.159 14.2807C29.1186 14.6258 29.0774 14.9708 29.0331 15.3158C28.9897 15.66 28.948 16.0046 28.9077 16.3492C28.8982 16.43 28.8888 16.5108 28.8793 16.5916C28.8651 16.7128 28.8509 16.8339 28.8368 16.9551C28.7482 17.7238 28.7482 17.7238 28.6782 18.0822C28.6146 18.4087 28.5815 18.7426 28.5484 19.0735C28.4909 19.6376 28.3959 20.1962 28.3018 20.7553C28.2833 20.8653 28.2653 20.9753 28.2472 21.0857C28.0749 22.1427 27.8287 23.1589 27.4141 24.1485C27.3913 24.2031 27.3913 24.2031 27.3681 24.2589C26.5087 26.2991 25.025 27.9126 22.9638 28.7569C21.768 29.2205 20.3272 29.3619 19.0781 29.0469C19.0352 29.0366 19.0352 29.0366 18.9918 29.0267C18.0417 28.8003 17.2507 28.3354 16.543 27.6719C16.5571 27.6436 16.5713 27.6152 16.5859 27.586C16.6336 27.601 16.6813 27.6161 16.7307 27.6315C17.1725 27.7652 17.5832 27.8387 18.0469 27.8438C18.0864 27.8447 18.1259 27.8455 18.1668 27.8464C19.8327 27.879 21.4238 27.4231 22.6875 26.2969C22.724 26.2651 22.7601 26.2333 22.7979 26.2007C22.9058 26.1053 23.0119 26.0082 23.1172 25.9102C23.1494 25.8801 23.1816 25.8505 23.2147 25.8196C23.4863 25.5583 23.7132 25.2691 23.9336 24.9649C23.9504 24.9413 23.9675 24.9181 23.9852 24.894C24.6593 23.965 25.1419 22.8779 25.4805 21.7852C25.4981 21.7319 25.5153 21.6787 25.5338 21.6237C25.6532 21.2511 25.7361 20.8751 25.8079 20.4906C25.8165 20.4463 25.8246 20.4025 25.8332 20.3569C25.8607 20.2031 25.8861 20.0489 25.9102 19.8946C25.9157 19.8594 25.9209 19.8246 25.9269 19.7885C26.0184 19.1925 26.0605 18.6077 26.058 18.0048C26.0575 17.8751 26.0588 17.7453 26.0601 17.6155C26.0648 16.3939 25.8483 15.1912 24.9795 14.2747C24.6267 13.9413 24.2314 13.7754 23.7828 13.6078C23.7329 13.5889 23.6835 13.5705 23.6328 13.5511C23.5877 13.5348 23.5421 13.518 23.4957 13.5013C23.3814 13.4519 23.2951 13.4037 23.2031 13.3204C23.16 13.2773 23.16 13.2773 23.16 13.2773C23.16 13.2773 23.1385 13.2558 23.1172 13.2344C22.975 13.0093 22.9453 12.806 22.9883 12.5469C23.0944 12.2913 23.2641 12.1056 23.5142 11.9845C23.6534 11.9385 23.7669 11.9351 23.9134 11.9355C23.9693 11.9355 24.0251 11.9355 24.0827 11.9355C24.1433 11.9359 24.2039 11.9364 24.2645 11.9368C24.3268 11.9372 24.3891 11.9372 24.4514 11.9372C24.6151 11.9376 24.7788 11.9385 24.9421 11.9394C25.1092 11.9402 25.2764 11.9406 25.4435 11.9411C25.7709 11.9419 26.0984 11.9437 26.4258 11.9454C26.4249 11.8753 26.4249 11.8753 26.4245 11.804C26.44 9.75139 27.4669 7.15307 28.6602 5.50006C28.6881 5.4601 28.7164 5.42014 28.7457 5.37932C30.03 3.58323 31.8222 2.30104 34.0201 1.90616C35.5261 1.66682 37.1598 1.87479 38.3582 2.87854Z" fill="#003366"/>
</g>
<defs>
<filter id="filter0_d_460_1308" x="3.29346" y="13.3682" width="23.3936" height="28.9789" filterUnits="userSpaceOnUse" color-interpolation-filters="sRGB">
<feFlood flood-opacity="0" result="BackgroundImageFix"/>
<feColorMatrix in="SourceAlpha" type="matrix" values="0 0 0 0 0 0 0 0 0 0 0 0 0 0 0 0 0 0 127 0" result="hardAlpha"/>
<feOffset dx="1" dy="1"/>
<feGaussianBlur stdDeviation="0.25"/>
<feComposite in2="hardAlpha" operator="out"/>
<feColorMatrix type="matrix" values="0 0 0 0 0 0 0 0 0 0 0 0 0 0 0 0 0 0 0.25 0"/>
<feBlend mode="normal" in2="BackgroundImageFix" result="effect1_dropShadow_460_1308"/>
<feBlend mode="normal" in="SourceGraphic" in2="effect1_dropShadow_460_1308" result="shape"/>
</filter>
<filter id="filter1_d_460_1308" x="16.543" y="1.81592" width="24.8047" height="28.9" filterUnits="userSpaceOnUse" color-interpolation-filters="sRGB">
<feFlood flood-opacity="0" result="BackgroundImageFix"/>
<feColorMatrix in="SourceAlpha" type="matrix" values="0 0 0 0 0 0 0 0 0 0 0 0 0 0 0 0 0 0 127 0" result="hardAlpha"/>
<feOffset dx="1" dy="1"/>
<feGaussianBlur stdDeviation="0.25"/>
<feComposite in2="hardAlpha" operator="out"/>
<feColorMatrix type="matrix" values="0 0 0 0 0 0 0 0 0 0 0 0 0 0 0 0 0 0 0.25 0"/>
<feBlend mode="normal" in2="BackgroundImageFix" result="effect1_dropShadow_460_1308"/>
<feBlend mode="normal" in="SourceGraphic" in2="effect1_dropShadow_460_1308" result="shape"/>
</filter>
</defs>
</svg>
