<svg version="1.1" id="Layer_1" xmlns="http://www.w3.org/2000/svg" xmlns:xlink="http://www.w3.org/1999/xlink" x="0px" y="0px"
	 width="100%" viewBox="0 0 1024 1024" enable-background="new 0 0 1024 1024" xml:space="preserve">
<path fill="#FFFFFF" opacity="1.000000" stroke="none" 
	d="
M1.000000,378.000000 
	C1.000000,252.000015 1.000000,126.500031 1.000000,1.000034 
	C342.333282,1.000022 683.666565,1.000022 1025.000000,1.000011 
	C1025.000000,342.333252 1025.000000,683.666504 1025.000000,1024.999756 
	C683.666809,1024.999878 342.333618,1024.999878 1.000206,1025.000000 
	C1.000000,809.500000 1.000000,594.000000 1.000000,378.000000 
M76.999809,616.500000 
	C76.999809,728.260620 76.999809,840.021240 76.999809,951.712830 
	C361.643250,951.712830 645.712341,951.712830 929.712891,951.712830 
	C929.712891,648.689880 929.712891,345.954254 929.712891,43.287189 
	C645.356567,43.287189 361.287445,43.287189 76.999809,43.287189 
	C76.999809,234.216324 76.999809,424.858154 76.999809,616.500000 
z"/>
<path fill="#000000" opacity="1.000000" stroke="none" 
	d="
M76.999809,616.000000 
	C76.999809,424.858154 76.999809,234.216324 76.999809,43.287189 
	C361.287445,43.287189 645.356567,43.287189 929.712891,43.287189 
	C929.712891,345.954254 929.712891,648.689880 929.712891,951.712830 
	C645.712341,951.712830 361.643250,951.712830 76.999809,951.712830 
	C76.999809,840.021240 76.999809,728.260620 76.999809,616.000000 
M429.876007,323.301636 
	C405.971191,333.758057 386.260071,349.579559 370.077148,369.946625 
	C347.448212,398.426392 332.902771,430.883118 322.979523,465.606262 
	C311.425964,506.034210 305.060791,547.527100 298.099304,588.875732 
	C292.632843,621.344482 288.136627,653.975403 282.841217,686.474365 
	C277.786987,717.493164 272.641937,748.507019 266.822113,779.388367 
	C261.533020,807.453186 254.341919,834.997070 241.056473,860.629211 
	C231.090149,879.857605 218.057892,896.043945 197.620468,904.493774 
	C171.039368,915.483826 143.464249,907.845520 130.941772,877.817566 
	C125.705856,865.262146 123.215744,852.095398 123.160858,838.658325 
	C123.109680,826.130371 124.397568,813.596985 125.100464,800.986023 
	C108.336319,806.239319 94.577736,815.915039 86.094131,832.018005 
	C78.857185,845.754639 77.047195,860.446533 78.857925,875.865723 
	C81.810081,901.005005 92.897308,921.300049 114.043640,935.368164 
	C141.288620,953.493530 171.298782,954.453491 201.945374,947.257568 
	C238.641510,938.641296 266.240570,916.262329 288.799866,887.100342 
	C313.584412,855.061584 329.342926,818.481995 339.763855,779.722534 
	C346.908081,753.150391 352.466431,726.111938 357.728058,699.086182 
	C361.963257,677.332520 364.672760,655.282471 368.097931,633.370056 
	C369.351868,625.347900 370.717194,617.343140 371.906708,610.092529 
	C378.792877,614.232727 385.092316,618.934814 392.093292,622.070557 
	C421.788666,635.371521 451.618988,633.638855 481.115601,621.289124 
	C505.862793,610.927795 523.838684,592.409485 538.870728,570.950012 
	C564.760498,533.990417 581.977966,493.543457 586.250549,448.171356 
	C588.581787,423.414185 586.868469,399.052246 576.965088,376.004913 
	C561.240173,339.409668 533.668091,317.614838 493.750275,313.234192 
	C472.039886,310.851624 450.817535,314.392090 429.876007,323.301636 
M766.317444,292.431763 
	C763.267944,282.739258 758.208679,279.001892 747.992737,278.990204 
	C730.160400,278.969788 712.328003,278.990936 694.495667,278.970337 
	C692.757324,278.968323 691.019104,278.796295 688.940674,278.684967 
	C689.683838,273.456207 690.291199,268.876495 690.990784,264.310913 
	C695.354553,235.833847 701.644043,207.822525 712.215759,180.949371 
	C721.664978,156.929626 734.586914,135.159241 755.485779,119.173622 
	C775.073425,104.190941 796.389526,93.593918 821.985779,94.908302 
	C844.016418,96.039581 859.720642,106.559830 868.715210,126.730858 
	C877.675720,146.825394 878.648804,168.313492 878.696106,189.790054 
	C878.723083,202.014938 877.366394,214.242874 876.609192,226.863510 
	C878.037903,226.791962 879.346008,226.908676 880.568542,226.638290 
	C904.101562,221.433640 919.249939,207.193604 924.928589,183.808487 
	C931.347534,157.374832 929.104858,131.261826 919.357666,105.937737 
	C909.745178,80.963745 892.829956,62.834629 867.731262,52.737911 
	C837.590698,40.612923 806.796875,41.310951 776.211365,49.659050 
	C738.593933,59.926445 707.038086,80.435463 682.151978,110.580452 
	C652.276367,146.769363 634.969543,189.028625 624.141479,234.177460 
	C620.630920,248.814941 618.225281,263.717407 615.219360,278.980591 
	C613.495422,278.980591 611.698364,278.980347 609.901245,278.980621 
	C591.735596,278.983429 573.569153,278.885681 555.404785,279.037323 
	C547.835144,279.100494 542.036438,282.668121 538.285461,289.308502 
	C534.764038,295.542603 534.896240,301.817047 538.939148,307.685242 
	C542.496155,312.848236 547.914673,315.432861 553.816284,317.069550 
	C580.765869,324.543427 595.654541,343.494232 603.002380,369.307434 
	C609.941467,393.684631 609.248718,418.557007 607.108093,443.493073 
	C604.647766,472.153748 598.405396,499.946350 587.898865,526.712097 
	C577.865295,552.273010 565.123352,576.338928 546.519104,596.839233 
	C525.235046,620.292419 499.614594,637.005127 468.922516,645.476379 
	C450.736481,650.495850 432.200043,651.576538 413.545868,649.076416 
	C404.430695,647.854797 395.435486,645.738037 385.729767,643.902222 
	C387.019470,645.295776 388.007721,646.525024 389.155914,647.580261 
	C411.550140,668.161926 438.466431,677.987793 468.363800,679.846924 
	C487.698242,681.049133 506.770355,679.084778 525.489929,673.235718 
	C549.297119,665.796875 570.218750,653.626221 588.475708,636.873962 
	C624.356140,603.950684 643.778381,561.725037 653.547241,515.167603 
	C660.417236,482.425812 664.169861,449.012421 668.840393,415.832214 
	C672.632874,388.890381 675.734436,361.851044 679.103027,334.850067 
	C679.529297,331.432648 680.682739,329.729889 684.734924,329.788055 
	C702.563660,330.044067 720.399658,330.037964 738.229797,329.837250 
	C746.414062,329.745117 754.860474,328.221893 759.317078,320.750122 
	C764.238586,312.498627 766.829529,303.089417 766.317444,292.431763 
z"/>
<path fill="#FEFEFE" opacity="1.000000" stroke="none" 
	d="
M430.235352,323.156799 
	C450.817535,314.392090 472.039886,310.851624 493.750275,313.234192 
	C533.668091,317.614838 561.240173,339.409668 576.965088,376.004913 
	C586.868469,399.052246 588.581787,423.414185 586.250549,448.171356 
	C581.977966,493.543457 564.760498,533.990417 538.870728,570.950012 
	C523.838684,592.409485 505.862793,610.927795 481.115601,621.289124 
	C451.618988,633.638855 421.788666,635.371521 392.093292,622.070557 
	C385.092316,618.934814 378.792877,614.232727 371.906708,610.092529 
	C370.717194,617.343140 369.351868,625.347900 368.097931,633.370056 
	C364.672760,655.282471 361.963257,677.332520 357.728058,699.086182 
	C352.466431,726.111938 346.908081,753.150391 339.763855,779.722534 
	C329.342926,818.481995 313.584412,855.061584 288.799866,887.100342 
	C266.240570,916.262329 238.641510,938.641296 201.945374,947.257568 
	C171.298782,954.453491 141.288620,953.493530 114.043640,935.368164 
	C92.897308,921.300049 81.810081,901.005005 78.857925,875.865723 
	C77.047195,860.446533 78.857185,845.754639 86.094131,832.018005 
	C94.577736,815.915039 108.336319,806.239319 125.100464,800.986023 
	C124.397568,813.596985 123.109680,826.130371 123.160858,838.658325 
	C123.215744,852.095398 125.705856,865.262146 130.941772,877.817566 
	C143.464249,907.845520 171.039368,915.483826 197.620468,904.493774 
	C218.057892,896.043945 231.090149,879.857605 241.056473,860.629211 
	C254.341919,834.997070 261.533020,807.453186 266.822113,779.388367 
	C272.641937,748.507019 277.786987,717.493164 282.841217,686.474365 
	C288.136627,653.975403 292.632843,621.344482 298.099304,588.875732 
	C305.060791,547.527100 311.425964,506.034210 322.979523,465.606262 
	C332.902771,430.883118 347.448212,398.426392 370.077148,369.946625 
	C386.260071,349.579559 405.971191,333.758057 430.235352,323.156799 
M516.006958,484.536224 
	C518.150208,470.484375 520.947510,456.493774 522.271301,442.365143 
	C523.929688,424.664429 524.351440,406.823395 519.941284,389.342712 
	C511.473907,355.780396 484.504059,349.985840 459.262207,359.788849 
	C445.100586,365.288696 435.856903,376.345154 427.813354,388.510162 
	C413.914093,409.531281 405.943024,433.114380 400.208923,457.324890 
	C394.391541,481.887054 389.796631,506.751892 385.188904,531.581116 
	C383.325531,541.622009 381.300201,551.468079 384.753662,562.187744 
	C397.074677,600.432739 440.501038,610.542480 467.691833,584.076782 
	C479.887360,572.206543 488.729065,558.191589 496.073090,543.073914 
	C505.023712,524.649109 511.134338,505.229553 516.006958,484.536224 
z"/>
<path fill="#003068" opacity="1.000000" stroke="none" 
	d="
M766.452637,292.817444 
	C766.829529,303.089417 764.238586,312.498627 759.317078,320.750122 
	C754.860474,328.221893 746.414062,329.745117 738.229797,329.837250 
	C720.399658,330.037964 702.563660,330.044067 684.734924,329.788055 
	C680.682739,329.729889 679.529297,331.432648 679.103027,334.850067 
	C675.734436,361.851044 672.632874,388.890381 668.840393,415.832214 
	C664.169861,449.012421 660.417236,482.425812 653.547241,515.167603 
	C643.778381,561.725037 624.356140,603.950684 588.475708,636.873962 
	C570.218750,653.626221 549.297119,665.796875 525.489929,673.235718 
	C506.770355,679.084778 487.698242,681.049133 468.363800,679.846924 
	C438.466431,677.987793 411.550140,668.161926 389.155914,647.580261 
	C388.007721,646.525024 387.019470,645.295776 385.729767,643.902222 
	C395.435486,645.738037 404.430695,647.854797 413.545868,649.076416 
	C432.200043,651.576538 450.736481,650.495850 468.922516,645.476379 
	C499.614594,637.005127 525.235046,620.292419 546.519104,596.839233 
	C565.123352,576.338928 577.865295,552.273010 587.898865,526.712097 
	C598.405396,499.946350 604.647766,472.153748 607.108093,443.493073 
	C609.248718,418.557007 609.941467,393.684631 603.002380,369.307434 
	C595.654541,343.494232 580.765869,324.543427 553.816284,317.069550 
	C547.914673,315.432861 542.496155,312.848236 538.939148,307.685242 
	C534.896240,301.817047 534.764038,295.542603 538.285461,289.308502 
	C542.036438,282.668121 547.835144,279.100494 555.404785,279.037323 
	C573.569153,278.885681 591.735596,278.983429 609.901245,278.980621 
	C611.698364,278.980347 613.495422,278.980591 615.219360,278.980591 
	C618.225281,263.717407 620.630920,248.814941 624.141479,234.177460 
	C634.969543,189.028625 652.276367,146.769363 682.151978,110.580452 
	C707.038086,80.435463 738.593933,59.926445 776.211365,49.659050 
	C806.796875,41.310951 837.590698,40.612923 867.731262,52.737911 
	C892.829956,62.834629 909.745178,80.963745 919.357666,105.937737 
	C929.104858,131.261826 931.347534,157.374832 924.928589,183.808487 
	C919.249939,207.193604 904.101562,221.433640 880.568542,226.638290 
	C879.346008,226.908676 878.037903,226.791962 876.609192,226.863510 
	C877.366394,214.242874 878.723083,202.014938 878.696106,189.790054 
	C878.648804,168.313492 877.675720,146.825394 868.715210,126.730858 
	C859.720642,106.559830 844.016418,96.039581 821.985779,94.908302 
	C796.389526,93.593918 775.073425,104.190941 755.485779,119.173622 
	C734.586914,135.159241 721.664978,156.929626 712.215759,180.949371 
	C701.644043,207.822525 695.354553,235.833847 690.990784,264.310913 
	C690.291199,268.876495 689.683838,273.456207 688.940674,278.684967 
	C691.019104,278.796295 692.757324,278.968323 694.495667,278.970337 
	C712.328003,278.990936 730.160400,278.969788 747.992737,278.990204 
	C758.208679,279.001892 763.267944,282.739258 766.452637,292.817444 
z"/>
<path fill="#010101" opacity="1.000000" stroke="none" 
	d="
M515.989441,484.957275 
	C511.134338,505.229553 505.023712,524.649109 496.073090,543.073914 
	C488.729065,558.191589 479.887360,572.206543 467.691833,584.076782 
	C440.501038,610.542480 397.074677,600.432739 384.753662,562.187744 
	C381.300201,551.468079 383.325531,541.622009 385.188904,531.581116 
	C389.796631,506.751892 394.391541,481.887054 400.208923,457.324890 
	C405.943024,433.114380 413.914093,409.531281 427.813354,388.510162 
	C435.856903,376.345154 445.100586,365.288696 459.262207,359.788849 
	C484.504059,349.985840 511.473907,355.780396 519.941284,389.342712 
	C524.351440,406.823395 523.929688,424.664429 522.271301,442.365143 
	C520.947510,456.493774 518.150208,470.484375 515.989441,484.957275 
z"/>
</svg>