<svg width="24" height="24" viewBox="0 0 24 24" fill="none" xmlns="http://www.w3.org/2000/svg">
<path d="M12.0539 1C10.0544 1.00062 8.0925 1.54358 6.37718 2.57104C4.66187 3.5985 3.25737 5.07198 2.31326 6.83454C1.36915 8.5971 0.920805 10.5827 1.01597 12.58C1.11113 14.5772 1.74624 16.5112 2.85366 18.176L1 23.1078L7.20717 21.9853C8.70184 22.7157 10.3421 23.0994 12.0057 23.1076C13.6692 23.1159 15.3132 22.7485 16.815 22.0329C18.3168 21.3174 19.6378 20.272 20.6794 18.975C21.721 17.6778 22.4564 16.1623 22.8308 14.5414C23.2051 12.9204 23.2088 11.2359 22.8415 9.61339C22.4743 7.99087 21.7455 6.47215 20.7096 5.17048C19.6736 3.86881 18.3572 2.81774 16.8585 2.09565C15.3598 1.37354 13.7175 0.99902 12.0539 1Z" stroke="#003366" stroke-width="2" stroke-linecap="round" stroke-linejoin="round"/>
</svg>
