<svg width="24" height="24" viewBox="0 0 24 24" fill="none" xmlns="http://www.w3.org/2000/svg">
<g clip-path="url(#clip0_937_33601)">
<path d="M8.61785 20.8736L1 23.0066L3.133 15.3888L17.0821 1.50738C17.2397 1.34615 17.4281 1.21803 17.6359 1.13057C17.8437 1.0431 18.067 0.998047 18.2925 0.998047C18.518 0.998047 18.7413 1.0431 18.9492 1.13057C19.1569 1.21803 19.3453 1.34615 19.5029 1.50738L22.4993 4.52066C22.6579 4.67803 22.7838 4.86528 22.8698 5.07155C22.9558 5.27784 23 5.49912 23 5.72259C23 5.94606 22.9558 6.16734 22.8698 6.37363C22.7838 6.57992 22.6579 6.76715 22.4993 6.92452L8.61785 20.8736Z" stroke="#003366" stroke-width="2" stroke-linecap="round" stroke-linejoin="round"/>
</g>
<defs>
<clipPath id="clip0_937_33601">
<rect width="24" height="24" fill="white"/>
</clipPath>
</defs>
</svg>
