<svg width="24" height="24" viewBox="0 0 24 24" fill="none" xmlns="http://www.w3.org/2000/svg">
<path d="M9.03223 22.1224C7.99143 22.7937 6.75118 23.0864 5.52 22.951C4.28883 22.8156 3.14183 22.2604 2.27188 21.3787L1.51133 20.635C1.1779 20.2939 0.991211 19.836 0.991211 19.359C0.991211 18.8821 1.1779 18.424 1.51133 18.0831L4.7394 14.8887C5.0776 14.5564 5.5328 14.3701 6.00698 14.3701C6.48114 14.3701 6.93636 14.5564 7.27454 14.8887C7.61558 15.2222 8.07361 15.4089 8.55057 15.4089C9.02752 15.4089 9.48553 15.2222 9.82658 14.8887L14.8968 9.81846C15.066 9.65177 15.2003 9.45313 15.292 9.23408C15.3837 9.01502 15.4309 8.77991 15.4309 8.54245C15.4309 8.30497 15.3837 8.06988 15.292 7.85081C15.2003 7.63176 15.066 7.43311 14.8968 7.26643C14.5645 6.92824 14.3783 6.47303 14.3783 5.99887C14.3783 5.52469 14.5645 5.06949 14.8968 4.73129L18.108 1.52012C18.4491 1.18669 18.907 1 19.384 1C19.8611 1 20.319 1.18669 20.6601 1.52012L21.4038 2.28067C22.2853 3.15061 22.8405 4.29762 22.976 5.52878C23.1115 6.75996 22.8188 8.00022 22.1473 9.04102C18.6488 14.197 14.1973 18.637 9.03223 22.1224Z" stroke="#003366" stroke-width="2" stroke-linecap="round" stroke-linejoin="round"/>
</svg>
