<svg width="24" height="24" viewBox="0 0 24 24" fill="none" xmlns="http://www.w3.org/2000/svg">
<path d="M0.357474 23.9271C0.113888 23.8003 -0.0357103 23.4906 0.00736758 23.202C0.0248598 23.0859 0.0507066 23.0517 0.369222 22.7218C0.612808 22.4696 6.30849 16.7166 6.51135 16.518C6.52232 16.5072 5.47461 15.4369 4.18332 14.1394C2.89176 12.8419 1.79106 11.726 1.73753 11.6599C1.57775 11.4623 1.55269 11.1476 1.67749 10.91C1.78609 10.7038 2.32261 10.2918 2.77193 10.0697C3.32541 9.79626 3.87681 9.67577 4.5906 9.67237C5.55241 9.66792 6.38891 9.85429 7.53974 10.3292L7.72145 10.4042L7.92483 10.2445C8.03657 10.1567 8.20445 10.0213 8.29791 9.94394C8.39138 9.86631 8.4851 9.78894 8.50677 9.77169C8.52844 9.7547 8.95531 9.4055 9.45579 8.99617C9.95628 8.58685 10.4745 8.16341 10.6071 8.05572C10.74 7.94803 11.241 7.53688 11.7206 7.14246C12.2003 6.74803 12.9686 6.11653 13.4281 5.73936C16.1031 3.54402 16.0903 3.55473 16.0984 3.44129C16.1034 3.37281 16.0391 3.10489 15.9091 2.65009C15.6778 1.84059 15.6679 1.7444 15.7945 1.52118C15.901 1.33325 17.0866 0.140827 17.2479 0.059276C17.4064 -0.0207067 17.6372 -0.0196612 17.7915 0.0618899C17.9458 0.14318 19.3763 1.53608 21.4782 3.65144C23.8193 6.00728 24.0036 6.21351 23.9999 6.47436C23.9979 6.63198 23.9488 6.73261 23.7613 6.96367C23.5606 7.21068 22.7434 8.00266 22.5363 8.1506C22.2583 8.34925 22.2186 8.34612 21.1691 8.04318C20.5905 7.87641 20.5143 7.86152 20.4597 7.90517C20.4258 7.93261 19.4034 9.16476 18.9369 9.74085C18.8651 9.82972 18.5183 10.2526 18.1667 10.6813C17.3148 11.719 17.2623 11.783 16.9096 12.2167C16.7422 12.4224 16.3209 12.9375 15.9731 13.3618C15.0499 14.4878 13.9208 15.8747 13.7482 16.0945L13.5981 16.2853L13.7649 16.7122C14.1931 17.8066 14.3489 18.5933 14.3213 19.517C14.2964 20.3498 14.1502 20.9058 13.8056 21.4771C13.6109 21.8 13.2832 22.2064 13.132 22.313C13.0318 22.3834 12.9939 22.3935 12.7999 22.4017C12.6128 22.4095 12.5629 22.4022 12.4564 22.3504C12.3603 22.3042 11.7734 21.733 9.91529 19.8791L7.49927 17.4681L4.77805 20.1917C2.00305 22.9691 1.16838 23.7859 0.96422 23.9229C0.865271 23.9893 0.824804 24 0.673379 24C0.531874 24 0.47026 23.9859 0.357474 23.9271ZM12.7746 20.4525C12.9691 19.8953 12.9918 19.0034 12.8287 18.3411C12.73 17.9414 12.5493 17.4106 12.3838 17.0342C12.1123 16.4165 12.0762 16.3136 12.077 16.1562C12.0775 16.0757 12.0958 15.9756 12.1177 15.934C12.1739 15.8263 13.0986 14.676 14.7839 12.6168C19.0196 7.44174 19.8874 6.42392 20.1128 6.3672C20.2323 6.33714 20.4062 6.37478 21.1871 6.5993L21.9492 6.8186L22.1267 6.63956L22.304 6.46077L19.9156 4.06939L17.5273 1.67827L17.3485 1.85732L17.1694 2.03663L17.2615 2.33434C17.4456 2.92846 17.5936 3.46691 17.6205 3.63994C17.6675 3.94393 17.6474 3.98 17.2325 4.33783C16.8391 4.67658 16.0854 5.31514 15.9587 5.41681C15.9144 5.4521 15.3857 5.89201 14.7839 6.39438C12.3253 8.44597 10.8097 9.69485 9.06783 11.105C8.07547 11.9085 8.05171 11.9244 7.84233 11.9236C7.6755 11.9229 7.64991 11.914 7.09695 11.6638C6.58054 11.4302 5.83177 11.1933 5.34773 11.1102C5.23833 11.0914 4.94462 11.0765 4.68198 11.0762C4.15199 11.076 3.88125 11.1168 3.54132 11.248L3.33925 11.3261L8.00524 15.9968C10.5714 18.5656 12.6796 20.6611 12.6903 20.6533C12.7007 20.6457 12.7389 20.5553 12.7746 20.4525Z" fill="#003366"/>
</svg>
