<svg width="24" height="24" viewBox="0 0 24 24" fill="none" xmlns="http://www.w3.org/2000/svg">
<g clip-path="url(#clip0_438_1632)">
<path d="M9.96403 18.858L13.6977 22.5746C13.9268 22.8093 14.2132 22.9802 14.5286 23.0703C14.8441 23.1605 15.1775 23.1667 15.4961 23.0883C15.8166 23.0138 16.1126 22.8581 16.3555 22.6361C16.5985 22.4141 16.7803 22.1335 16.8834 21.821L23.0148 3.44359C23.1429 3.09926 23.1693 2.72543 23.0909 2.36652C23.0126 2.0076 22.8329 1.67874 22.5732 1.41899C22.3135 1.15923 21.9845 0.979527 21.6257 0.901228C21.2668 0.82293 20.8929 0.849332 20.5486 0.977296L2.17121 7.10879C1.84793 7.2192 1.56001 7.41396 1.3372 7.67291C1.11439 7.93185 0.964764 8.2456 0.903801 8.58172C0.840874 8.88743 0.854882 9.20397 0.944566 9.50292C1.03425 9.80186 1.1968 10.0739 1.41761 10.2944L6.11043 14.9873L5.95629 20.9304L9.96403 18.858Z" stroke="#003366" stroke-width="2" stroke-linecap="round" stroke-linejoin="round"/>
<path d="M22.4669 1.35394L6.11047 14.9871" stroke="#003366" stroke-width="2" stroke-linecap="round" stroke-linejoin="round"/>
</g>
<defs>
<clipPath id="clip0_438_1632">
<rect width="24" height="24" fill="white"/>
</clipPath>
</defs>
</svg>
