<svg width="24" height="24" viewBox="0 0 24 24" fill="none" xmlns="http://www.w3.org/2000/svg">
<g clip-path="url(#clip0_841_8739)">
<path d="M12.0539 1C10.0544 1.00062 8.0925 1.54358 6.37718 2.57104C4.66187 3.5985 3.25737 5.07198 2.31326 6.83454C1.36915 8.5971 0.920805 10.5827 1.01597 12.58C1.11113 14.5772 1.74624 16.5112 2.85366 18.176L1 23.1078L7.20717 21.9853C8.70184 22.7157 10.3421 23.0994 12.0057 23.1076C13.6692 23.1159 15.3132 22.7485 16.815 22.0329C18.3168 21.3174 19.6378 20.272 20.6794 18.975C21.721 17.6778 22.4564 16.1623 22.8308 14.5414C23.2051 12.9204 23.2088 11.2359 22.8415 9.61339C22.4743 7.99087 21.7455 6.47215 20.7096 5.17048C19.6736 3.86881 18.3572 2.81774 16.8585 2.09565C15.3598 1.37354 13.7175 0.99902 12.0539 1Z" stroke="#316492" stroke-width="2" stroke-linecap="round" stroke-linejoin="round"/>
<path d="M9.50293 9.50305C9.50293 8.99853 9.65254 8.50533 9.93284 8.08585C10.2131 7.66635 10.6115 7.3394 11.0776 7.14633C11.5438 6.95325 12.0566 6.90273 12.5515 7.00117C13.0463 7.09959 13.5008 7.34253 13.8576 7.69929C14.2143 8.05604 14.4573 8.51056 14.5557 9.00539C14.6541 9.50022 14.6036 10.0131 14.4106 10.4792C14.2175 10.9453 13.8905 11.3437 13.471 11.624C13.0515 11.9043 12.5584 12.0539 12.0538 12.0539V13.7545" stroke="#316492" stroke-width="2" stroke-linecap="round" stroke-linejoin="round"/>
<path d="M12.057 18.0056C11.8222 18.0056 11.6318 17.8152 11.6318 17.5805C11.6318 17.3456 11.8222 17.1553 12.057 17.1553" stroke="#316492" stroke-width="2" stroke-linecap="round" stroke-linejoin="round"/>
<path d="M12.0566 18.0056C12.2914 18.0056 12.4818 17.8153 12.4818 17.5804C12.4818 17.3456 12.2914 17.1553 12.0566 17.1553" stroke="#316492" stroke-width="2" stroke-linecap="round" stroke-linejoin="round"/>
</g>
<defs>
<clipPath id="clip0_841_8739">
<rect width="24" height="24" fill="white"/>
</clipPath>
</defs>
</svg>
