<svg width="24" height="24" viewBox="0 0 24 24" fill="none" xmlns="http://www.w3.org/2000/svg">
<path d="M8.73755 3.96154L9.53012 2.08308C9.66379 1.76503 9.89896 1.49146 10.2048 1.2982C10.5107 1.10495 10.873 1.00101 11.2443 1H12.7557C13.127 1.00101 13.4893 1.10495 13.7951 1.2982C14.101 1.49146 14.3362 1.76503 14.4698 2.08308L15.2624 3.96154L17.9534 5.38308L20.1283 5.07846C20.4905 5.03333 20.8591 5.08806 21.1874 5.23571C21.5155 5.38336 21.7885 5.61726 21.9715 5.90769L22.7088 7.09231C22.8977 7.38736 22.9849 7.72807 22.9585 8.06948C22.9322 8.41089 22.7937 8.73694 22.5613 9.00462L21.2158 10.5785V13.4215L22.5982 14.9954C22.8306 15.2631 22.969 15.5891 22.9954 15.9305C23.0217 16.2719 22.9346 16.6126 22.7456 16.9077L22.0084 18.0923C21.8253 18.3827 21.5524 18.6166 21.2243 18.7643C20.896 18.9119 20.5274 18.9667 20.1652 18.9215L17.9902 18.6169L15.2993 20.0385L14.5067 21.9169C14.373 22.2349 14.1379 22.5086 13.832 22.7018C13.5261 22.8951 13.1638 22.999 12.7925 23H11.2443C10.873 22.999 10.5107 22.8951 10.2048 22.7018C9.89896 22.5086 9.66379 22.2349 9.53012 21.9169L8.73755 20.0385L6.04651 18.6169L3.87156 18.9215C3.50941 18.9667 3.14081 18.9119 2.81261 18.7643C2.48444 18.6166 2.21146 18.3827 2.02838 18.0923L1.29111 16.9077C1.10218 16.6126 1.01514 16.2719 1.04147 15.9305C1.06779 15.5891 1.20625 15.2631 1.43856 14.9954L2.78408 13.4215V10.5785L1.4017 9.00462C1.16938 8.73694 1.03092 8.41089 1.0046 8.06948C0.978281 7.72807 1.06532 7.38736 1.25424 7.09231L1.99151 5.90769C2.1746 5.61726 2.44757 5.38336 2.77575 5.23571C3.10395 5.08806 3.47255 5.03333 3.83469 5.07846L6.00965 5.38308L8.73755 3.96154ZM8.31362 12C8.31362 12.6694 8.52982 13.3238 8.93488 13.8804C9.33996 14.437 9.91567 14.8708 10.5893 15.127C11.2629 15.3831 12.0041 15.4502 12.7192 15.3196C13.4342 15.189 14.0911 14.8666 14.6066 14.3933C15.1222 13.9199 15.4733 13.3169 15.6155 12.6603C15.7577 12.0038 15.6848 11.3232 15.4057 10.7048C15.1267 10.0863 14.6542 9.5577 14.048 9.18579C13.4418 8.81389 12.7291 8.61538 12 8.61538C11.0223 8.61538 10.0847 8.97197 9.39334 9.60672C8.70201 10.2415 8.31362 11.1023 8.31362 12Z" stroke="#003366" stroke-width="2" stroke-linecap="round" stroke-linejoin="round"/>
</svg>
